<mxfile host="app.diagrams.net" agent="Mozilla/5.0 (X11; Linux x86_64) AppleWebKit/537.36 (KHTML, like Gecko) Chrome/132.0.0.0 Safari/537.36 OPR/117.0.0.0" version="26.0.16">
  <diagram name="Page-1" id="eTXSdUDN3YRWy6ApER9W">
    <mxGraphModel dx="5354" dy="2154" grid="1" gridSize="10" guides="1" tooltips="1" connect="1" arrows="1" fold="1" page="1" pageScale="1" pageWidth="1600" pageHeight="1200" math="0" shadow="0">
      <root>
        <mxCell id="0" />
        <mxCell id="1" parent="0" />
        <mxCell id="HQJu8xaNIS8UzSnk2N4J-137" value="" style="whiteSpace=wrap;html=1;aspect=fixed;fillColor=#fff2cc;strokeColor=#d6b656;opacity=50;" parent="1" vertex="1">
          <mxGeometry x="650" y="1600" width="80" height="80" as="geometry" />
        </mxCell>
        <mxCell id="HQJu8xaNIS8UzSnk2N4J-58" value="" style="rounded=1;whiteSpace=wrap;html=1;dashed=1;dashPattern=1 4;fillColor=#fff2cc;strokeColor=#d6b656;fillStyle=hatch;perimeterSpacing=11;strokeWidth=3;movable=0;resizable=0;rotatable=0;deletable=0;editable=0;locked=1;connectable=0;" parent="1" vertex="1">
          <mxGeometry x="40" y="1160" width="1620" height="1000" as="geometry" />
        </mxCell>
        <mxCell id="HQJu8xaNIS8UzSnk2N4J-47" value="" style="rounded=1;whiteSpace=wrap;html=1;dashed=1;dashPattern=1 4;fillColor=#f8cecc;strokeColor=#b85450;fillStyle=hatch;perimeterSpacing=7;strokeWidth=3;movable=1;resizable=1;rotatable=1;deletable=1;editable=1;locked=0;connectable=1;" parent="1" vertex="1">
          <mxGeometry x="900" y="80" width="740" height="1050" as="geometry" />
        </mxCell>
        <mxCell id="HQJu8xaNIS8UzSnk2N4J-3" value="&lt;font style=&quot;font-size: 35px;&quot;&gt;Management &lt;br&gt;&amp;amp; Governance&lt;/font&gt;" style="ellipse;whiteSpace=wrap;html=1;aspect=fixed;shadow=0;labelBorderColor=none;fillColor=#f8cecc;strokeColor=#b85450;fontStyle=1;strokeWidth=6;" parent="1" vertex="1">
          <mxGeometry x="940" y="786" width="300" height="300" as="geometry" />
        </mxCell>
        <mxCell id="HQJu8xaNIS8UzSnk2N4J-10" value="" style="rounded=1;whiteSpace=wrap;html=1;dashed=1;dashPattern=1 4;fillColor=#dae8fc;strokeColor=#6c8ebf;fillStyle=hatch;gradientColor=none;perimeterSpacing=7;strokeWidth=3;movable=1;resizable=1;rotatable=1;deletable=1;editable=1;locked=0;connectable=1;" parent="1" vertex="1">
          <mxGeometry x="20" y="80" width="780" height="1060" as="geometry" />
        </mxCell>
        <mxCell id="myZ27B8WGgTpXeWoUAyN-13" value="Monitoring &#xa;tools" style="rounded=1;fillColor=#f8cecc;strokeColor=#b85450;fontStyle=1;fontSize=20;opacity=70;" parent="1" vertex="1">
          <mxGeometry x="1280" y="820" width="160" height="160" as="geometry" />
        </mxCell>
        <mxCell id="HQJu8xaNIS8UzSnk2N4J-2" value="&lt;font style=&quot;font-size: 35px;&quot;&gt;Azure Architecture&lt;/font&gt;&lt;div&gt;&lt;font style=&quot;font-size: 35px;&quot;&gt;&amp;nbsp;&amp;nbsp;&amp;amp; services&lt;/font&gt;&lt;/div&gt;" style="ellipse;whiteSpace=wrap;html=1;aspect=fixed;fillColor=#fff2cc;strokeColor=#d6b656;fontStyle=1;strokeWidth=6;" parent="1" vertex="1">
          <mxGeometry x="700" y="1230" width="300" height="300" as="geometry" />
        </mxCell>
        <mxCell id="myZ27B8WGgTpXeWoUAyN-5" value="Cloud Models" style="rounded=1;fillColor=#dae8fc;strokeColor=#6c8ebf;fontStyle=1;fontSize=14;" parent="1" vertex="1">
          <mxGeometry x="290" y="460" width="200" height="160" as="geometry" />
        </mxCell>
        <mxCell id="HQJu8xaNIS8UzSnk2N4J-5" value="Public cloud" style="rounded=1;fillColor=#dae8fc;strokeColor=#6c8ebf;fontStyle=1" parent="1" vertex="1">
          <mxGeometry x="50" y="480" width="200" height="35" as="geometry" />
        </mxCell>
        <mxCell id="HQJu8xaNIS8UzSnk2N4J-6" value="Private cloud" style="rounded=1;fillColor=#dae8fc;strokeColor=#6c8ebf;fontStyle=1" parent="1" vertex="1">
          <mxGeometry x="50" y="522.5" width="200" height="35" as="geometry" />
        </mxCell>
        <mxCell id="HQJu8xaNIS8UzSnk2N4J-14" value="&lt;h1 style=&quot;margin-top: 0px;&quot;&gt;AZ-900: Fundamentals&amp;nbsp;&lt;/h1&gt;&lt;p&gt;az900/&lt;/p&gt;&lt;p&gt;│&lt;/p&gt;&lt;p&gt;├── cloud-concepts/&lt;/p&gt;&lt;p&gt;│&amp;nbsp; &amp;nbsp;├── cloud-computing/&lt;/p&gt;&lt;p&gt;│&amp;nbsp; &amp;nbsp;│&amp;nbsp; &amp;nbsp;├── define-cloud-computing&lt;/p&gt;&lt;p&gt;│&amp;nbsp; &amp;nbsp;│&amp;nbsp; &amp;nbsp;├── shared-responsibility-model&lt;/p&gt;&lt;p&gt;│&amp;nbsp; &amp;nbsp;│&amp;nbsp; &amp;nbsp;├── cloud-models/&lt;/p&gt;&lt;p&gt;│&amp;nbsp; &amp;nbsp;│&amp;nbsp; &amp;nbsp;│&amp;nbsp; &amp;nbsp;├── public-cloud&lt;/p&gt;&lt;p&gt;│&amp;nbsp; &amp;nbsp;│&amp;nbsp; &amp;nbsp;│&amp;nbsp; &amp;nbsp;├── private-cloud&lt;/p&gt;&lt;p&gt;│&amp;nbsp; &amp;nbsp;│&amp;nbsp; &amp;nbsp;│&amp;nbsp; &amp;nbsp;└── hybrid-cloud&lt;/p&gt;&lt;p&gt;│&amp;nbsp; &amp;nbsp;│&amp;nbsp; &amp;nbsp;├── consumption-based-model&lt;/p&gt;&lt;p&gt;│&amp;nbsp; &amp;nbsp;│&amp;nbsp; &amp;nbsp;├── cloud-pricing-models/&lt;/p&gt;&lt;p&gt;│&amp;nbsp; &amp;nbsp;│&amp;nbsp; &amp;nbsp;│&amp;nbsp; &amp;nbsp;├── compare-pricing&lt;/p&gt;&lt;p&gt;│&amp;nbsp; &amp;nbsp;│&amp;nbsp; &amp;nbsp;│&amp;nbsp; &amp;nbsp;└── serverless&lt;/p&gt;&lt;p&gt;│&amp;nbsp; &amp;nbsp;│&amp;nbsp; &amp;nbsp;└── benefits-of-using-cloud-services/&lt;/p&gt;&lt;p&gt;│&amp;nbsp; &amp;nbsp;│&amp;nbsp; &amp;nbsp; &amp;nbsp; &amp;nbsp;├── high-availability-and-scalability&lt;/p&gt;&lt;p&gt;│&amp;nbsp; &amp;nbsp;│&amp;nbsp; &amp;nbsp; &amp;nbsp; &amp;nbsp;├── reliability-and-predictability&lt;/p&gt;&lt;p&gt;│&amp;nbsp; &amp;nbsp;│&amp;nbsp; &amp;nbsp; &amp;nbsp; &amp;nbsp;├── security-and-governance&lt;/p&gt;&lt;p&gt;│&amp;nbsp; &amp;nbsp;│&amp;nbsp; &amp;nbsp; &amp;nbsp; &amp;nbsp;├── manageability&lt;/p&gt;&lt;p&gt;│&amp;nbsp; &amp;nbsp;│&amp;nbsp; &amp;nbsp; &amp;nbsp; &amp;nbsp;└── cloud-service-types/&lt;/p&gt;&lt;p&gt;│&amp;nbsp; &amp;nbsp;│&amp;nbsp; &amp;nbsp; &amp;nbsp; &amp;nbsp; &amp;nbsp; &amp;nbsp;├── IaaS&lt;/p&gt;&lt;p&gt;│&amp;nbsp; &amp;nbsp;│&amp;nbsp; &amp;nbsp; &amp;nbsp; &amp;nbsp; &amp;nbsp; &amp;nbsp;├── PaaS&lt;/p&gt;&lt;p&gt;│&amp;nbsp; &amp;nbsp;│&amp;nbsp; &amp;nbsp; &amp;nbsp; &amp;nbsp; &amp;nbsp; &amp;nbsp;└── SaaS&lt;/p&gt;&lt;p&gt;│&amp;nbsp; &amp;nbsp;└── identify-appropriate-use-cases&lt;/p&gt;&lt;p&gt;│&lt;/p&gt;&lt;p&gt;├── azure-architecture-and-services/&lt;/p&gt;&lt;p&gt;│&amp;nbsp; &amp;nbsp;├── core-architectural-components/&lt;/p&gt;&lt;p&gt;│&amp;nbsp; &amp;nbsp;│&amp;nbsp; &amp;nbsp;├── regions-and-region-pairs&lt;/p&gt;&lt;p&gt;│&amp;nbsp; &amp;nbsp;│&amp;nbsp; &amp;nbsp;├── availability-zones&lt;/p&gt;&lt;p&gt;│&amp;nbsp; &amp;nbsp;│&amp;nbsp; &amp;nbsp;├── datacenters&lt;/p&gt;&lt;p&gt;│&amp;nbsp; &amp;nbsp;│&amp;nbsp; &amp;nbsp;├── resource-groups-and-subscriptions&lt;/p&gt;&lt;p&gt;│&amp;nbsp; &amp;nbsp;│&amp;nbsp; &amp;nbsp;├── management-groups&lt;/p&gt;&lt;p&gt;│&amp;nbsp; &amp;nbsp;│&amp;nbsp; &amp;nbsp;└── hierarchy-of-resources&lt;/p&gt;&lt;p&gt;│&amp;nbsp; &amp;nbsp;├── compute-and-networking-services/&lt;/p&gt;&lt;p&gt;│&amp;nbsp; &amp;nbsp;│&amp;nbsp; &amp;nbsp;├── compute-types/&lt;/p&gt;&lt;p&gt;│&amp;nbsp; &amp;nbsp;│&amp;nbsp; &amp;nbsp;│&amp;nbsp; &amp;nbsp;├── containers&lt;/p&gt;&lt;p&gt;│&amp;nbsp; &amp;nbsp;│&amp;nbsp; &amp;nbsp;│&amp;nbsp; &amp;nbsp;├── virtual-machines&lt;/p&gt;&lt;p&gt;│&amp;nbsp; &amp;nbsp;│&amp;nbsp; &amp;nbsp;│&amp;nbsp; &amp;nbsp;└── functions&lt;/p&gt;&lt;p&gt;│&amp;nbsp; &amp;nbsp;│&amp;nbsp; &amp;nbsp;├── virtual-machines-options/&lt;/p&gt;&lt;p&gt;│&amp;nbsp; &amp;nbsp;│&amp;nbsp; &amp;nbsp;├── application-hosting-options/&lt;/p&gt;&lt;p&gt;│&amp;nbsp; &amp;nbsp;│&amp;nbsp; &amp;nbsp;├── virtual-networking/&lt;/p&gt;&lt;p&gt;│&amp;nbsp; &amp;nbsp;│&amp;nbsp; &amp;nbsp;│&amp;nbsp; &amp;nbsp;├── virtual-networks&lt;/p&gt;&lt;p&gt;│&amp;nbsp; &amp;nbsp;│&amp;nbsp; &amp;nbsp;│&amp;nbsp; &amp;nbsp;├── subnets&lt;/p&gt;&lt;p&gt;│&amp;nbsp; &amp;nbsp;│&amp;nbsp; &amp;nbsp;│&amp;nbsp; &amp;nbsp;├── peering&lt;/p&gt;&lt;p&gt;│&amp;nbsp; &amp;nbsp;│&amp;nbsp; &amp;nbsp;│&amp;nbsp; &amp;nbsp;├── DNS&lt;/p&gt;&lt;p&gt;│&amp;nbsp; &amp;nbsp;│&amp;nbsp; &amp;nbsp;│&amp;nbsp; &amp;nbsp;├── VPN-Gateway&lt;/p&gt;&lt;p&gt;│&amp;nbsp; &amp;nbsp;│&amp;nbsp; &amp;nbsp;│&amp;nbsp; &amp;nbsp;└── ExpressRoute&lt;/p&gt;&lt;p&gt;│&amp;nbsp; &amp;nbsp;│&amp;nbsp; &amp;nbsp;├── public-and-private-endpoints&lt;/p&gt;&lt;p&gt;│&amp;nbsp; &amp;nbsp;│&amp;nbsp; &amp;nbsp;└── storage-services/&lt;/p&gt;&lt;p&gt;│&amp;nbsp; &amp;nbsp;│&amp;nbsp; &amp;nbsp; &amp;nbsp; &amp;nbsp;├── compare-storage-services&lt;/p&gt;&lt;p&gt;│&amp;nbsp; &amp;nbsp;│&amp;nbsp; &amp;nbsp; &amp;nbsp; &amp;nbsp;├── storage-tiers&lt;/p&gt;&lt;p&gt;│&amp;nbsp; &amp;nbsp;│&amp;nbsp; &amp;nbsp; &amp;nbsp; &amp;nbsp;├── redundancy-options&lt;/p&gt;&lt;p&gt;│&amp;nbsp; &amp;nbsp;│&amp;nbsp; &amp;nbsp; &amp;nbsp; &amp;nbsp;├── storage-account-options&lt;/p&gt;&lt;p&gt;│&amp;nbsp; &amp;nbsp;│&amp;nbsp; &amp;nbsp; &amp;nbsp; &amp;nbsp;├── moving-files-options&lt;/p&gt;&lt;p&gt;│&amp;nbsp; &amp;nbsp;│&amp;nbsp; &amp;nbsp; &amp;nbsp; &amp;nbsp;└── migration-options&lt;/p&gt;&lt;p&gt;│&amp;nbsp; &amp;nbsp;├── identity-access-and-security/&lt;/p&gt;&lt;p&gt;│&amp;nbsp; &amp;nbsp;│&amp;nbsp; &amp;nbsp;├── directory-services/&lt;/p&gt;&lt;p&gt;│&amp;nbsp; &amp;nbsp;│&amp;nbsp; &amp;nbsp;│&amp;nbsp; &amp;nbsp;├── Microsoft-Entra-ID&lt;/p&gt;&lt;p&gt;│&amp;nbsp; &amp;nbsp;│&amp;nbsp; &amp;nbsp;│&amp;nbsp; &amp;nbsp;└── Microsoft-Entra-Domain-Services&lt;/p&gt;&lt;p&gt;│&amp;nbsp; &amp;nbsp;│&amp;nbsp; &amp;nbsp;├── authentication-methods/&lt;/p&gt;&lt;p&gt;│&amp;nbsp; &amp;nbsp;│&amp;nbsp; &amp;nbsp;│&amp;nbsp; &amp;nbsp;├── SSO&lt;/p&gt;&lt;p&gt;│&amp;nbsp; &amp;nbsp;│&amp;nbsp; &amp;nbsp;│&amp;nbsp; &amp;nbsp;├── MFA&lt;/p&gt;&lt;p&gt;│&amp;nbsp; &amp;nbsp;│&amp;nbsp; &amp;nbsp;│&amp;nbsp; &amp;nbsp;└── passwordless&lt;/p&gt;&lt;p&gt;│&amp;nbsp; &amp;nbsp;│&amp;nbsp; &amp;nbsp;├── external-identities/&lt;/p&gt;&lt;p&gt;│&amp;nbsp; &amp;nbsp;│&amp;nbsp; &amp;nbsp;│&amp;nbsp; &amp;nbsp;├── B2B&lt;/p&gt;&lt;p&gt;│&amp;nbsp; &amp;nbsp;│&amp;nbsp; &amp;nbsp;│&amp;nbsp; &amp;nbsp;└── B2C&lt;/p&gt;&lt;p&gt;│&amp;nbsp; &amp;nbsp;│&amp;nbsp; &amp;nbsp;├── conditional-access&lt;/p&gt;&lt;p&gt;│&amp;nbsp; &amp;nbsp;│&amp;nbsp; &amp;nbsp;├── role-based-access-control&lt;/p&gt;&lt;p&gt;│&amp;nbsp; &amp;nbsp;│&amp;nbsp; &amp;nbsp;├── zero-trust&lt;/p&gt;&lt;p&gt;│&amp;nbsp; &amp;nbsp;│&amp;nbsp; &amp;nbsp;└── defense-in-depth-model&lt;/p&gt;&lt;p&gt;│&amp;nbsp; &amp;nbsp;└── Microsoft-Defender-for-Cloud&lt;/p&gt;&lt;p&gt;│&lt;/p&gt;&lt;p&gt;├── azure-management-and-governance/&lt;/p&gt;&lt;p&gt;│&amp;nbsp; &amp;nbsp;├── cost-management-in-azure/&lt;/p&gt;&lt;p&gt;│&amp;nbsp; &amp;nbsp;│&amp;nbsp; &amp;nbsp;├── factors-affecting-costs&lt;/p&gt;&lt;p&gt;│&amp;nbsp; &amp;nbsp;│&amp;nbsp; &amp;nbsp;├── pricing-calculator&lt;/p&gt;&lt;p&gt;│&amp;nbsp; &amp;nbsp;│&amp;nbsp; &amp;nbsp;├── TCO-calculator&lt;/p&gt;&lt;p&gt;│&amp;nbsp; &amp;nbsp;│&amp;nbsp; &amp;nbsp;├── cost-management-capabilities&lt;/p&gt;&lt;p&gt;│&amp;nbsp; &amp;nbsp;│&amp;nbsp; &amp;nbsp;└── purpose-of-tags&lt;/p&gt;&lt;p&gt;│&amp;nbsp; &amp;nbsp;├── governance-and-compliance/&lt;/p&gt;&lt;p&gt;│&amp;nbsp; &amp;nbsp;│&amp;nbsp; &amp;nbsp;├── Microsoft-Purview&lt;/p&gt;&lt;p&gt;│&amp;nbsp; &amp;nbsp;│&amp;nbsp; &amp;nbsp;├── Azure-Policy&lt;/p&gt;&lt;p&gt;│&amp;nbsp; &amp;nbsp;│&amp;nbsp; &amp;nbsp;└── resource-locks&lt;/p&gt;&lt;p&gt;│&amp;nbsp; &amp;nbsp;├── managing-and-deploying-resources/&lt;/p&gt;&lt;p&gt;│&amp;nbsp; &amp;nbsp;│&amp;nbsp; &amp;nbsp;├── Azure-portal&lt;/p&gt;&lt;p&gt;│&amp;nbsp; &amp;nbsp;│&amp;nbsp; &amp;nbsp;├── Azure-Cloud-Shell&lt;/p&gt;&lt;p&gt;│&amp;nbsp; &amp;nbsp;│&amp;nbsp; &amp;nbsp;├── Azure-CLI&lt;/p&gt;&lt;p&gt;│&amp;nbsp; &amp;nbsp;│&amp;nbsp; &amp;nbsp;├── Azure-PowerShell&lt;/p&gt;&lt;p&gt;│&amp;nbsp; &amp;nbsp;│&amp;nbsp; &amp;nbsp;├── Azure-Arc&lt;/p&gt;&lt;p&gt;│&amp;nbsp; &amp;nbsp;│&amp;nbsp; &amp;nbsp;├── infrastructure-as-code&lt;/p&gt;&lt;p&gt;│&amp;nbsp; &amp;nbsp;│&amp;nbsp; &amp;nbsp;└── ARM-and-ARM-templates&lt;/p&gt;&lt;p&gt;│&amp;nbsp; &amp;nbsp;└── monitoring-tools-in-azure/&lt;/p&gt;&lt;p&gt;│&amp;nbsp; &amp;nbsp; &amp;nbsp; &amp;nbsp;├── Azure-Advisor&lt;/p&gt;&lt;p&gt;│&amp;nbsp; &amp;nbsp; &amp;nbsp; &amp;nbsp;├── Azure-Service-Health&lt;/p&gt;&lt;p&gt;│&amp;nbsp; &amp;nbsp; &amp;nbsp; &amp;nbsp;├── Azure-Monitor&lt;/p&gt;&lt;p&gt;│&amp;nbsp; &amp;nbsp; &amp;nbsp; &amp;nbsp;└── Application-Insights&lt;/p&gt;&lt;div&gt;&lt;br&gt;&lt;/div&gt;" style="text;html=1;whiteSpace=wrap;overflow=hidden;rounded=0;fillColor=#ffe6cc;strokeColor=#d79b00;fillStyle=auto;opacity=40;gradientDirection=radial;glass=1;fontStyle=1" parent="1" vertex="1">
          <mxGeometry x="70" y="3360" width="460" height="2970" as="geometry" />
        </mxCell>
        <mxCell id="HQJu8xaNIS8UzSnk2N4J-7" value="Hybrid" style="rounded=1;fillColor=#dae8fc;strokeColor=#6c8ebf;fontStyle=1" parent="1" vertex="1">
          <mxGeometry x="50" y="565" width="200" height="35" as="geometry" />
        </mxCell>
        <mxCell id="HQJu8xaNIS8UzSnk2N4J-16" value="&lt;h1 style=&quot;margin-top: 0px;&quot;&gt;Теги&lt;/h1&gt;&lt;p&gt;# az900&lt;/p&gt;&lt;p&gt;az900/cloud-concepts/cloud-computing/define-cloud-computing&lt;/p&gt;&lt;p&gt;az900/cloud-concepts/cloud-computing/shared-responsibility-model&lt;/p&gt;&lt;p&gt;az900/cloud-concepts/cloud-models/public-cloud&lt;/p&gt;&lt;p&gt;az900/cloud-concepts/cloud-models/private-cloud&lt;/p&gt;&lt;p&gt;az900/cloud-concepts/cloud-models/hybrid-cloud&lt;/p&gt;&lt;p&gt;az900/cloud-concepts/consumption-based-model&lt;/p&gt;&lt;p&gt;az900/cloud-concepts/cloud-pricing-models/compare-pricing&lt;/p&gt;&lt;p&gt;az900/cloud-concepts/cloud-pricing-models/serverless&lt;/p&gt;&lt;p&gt;az900/cloud-concepts/benefits-of-using-cloud-services/high-availability-and-scalability&lt;/p&gt;&lt;p&gt;az900/cloud-concepts/benefits-of-using-cloud-services/reliability-and-predictability&lt;/p&gt;&lt;p&gt;az900/cloud-concepts/benefits-of-using-cloud-services/security-and-governance&lt;/p&gt;&lt;p&gt;az900/cloud-concepts/benefits-of-using-cloud-services/manageability&lt;/p&gt;&lt;p&gt;az900/cloud-concepts/cloud-service-types/IaaS&lt;/p&gt;&lt;p&gt;az900/cloud-concepts/cloud-service-types/PaaS&lt;/p&gt;&lt;p&gt;az900/cloud-concepts/cloud-service-types/SaaS&lt;/p&gt;&lt;p&gt;az900/azure-architecture-and-services/core-architectural-components/regions-and-region-pairs&lt;/p&gt;&lt;p&gt;az900/azure-architecture-and-services/core-architectural-components/availability-zones&lt;/p&gt;&lt;p&gt;az900/azure-architecture-and-services/core-architectural-components/datacenters&lt;/p&gt;&lt;p&gt;az900/azure-architecture-and-services/core-architectural-components/resource-groups-and-subscriptions&lt;/p&gt;&lt;p&gt;az900/azure-architecture-and-services/core-architectural-components/management-groups&lt;/p&gt;&lt;p&gt;az900/azure-architecture-and-services/core-architectural-components/hierarchy-of-resources&lt;/p&gt;&lt;p&gt;az900/azure-architecture-and-services/compute-and-networking-services/compute-types/containers&lt;/p&gt;&lt;p&gt;az900/azure-architecture-and-services/compute-and-networking-services/compute-types/virtual-machines&lt;/p&gt;&lt;p&gt;az900/azure-architecture-and-services/compute-and-networking-services/compute-types/functions&lt;/p&gt;&lt;p&gt;az900/azure-architecture-and-services/compute-and-networking-services/virtual-machines-options&lt;/p&gt;&lt;p&gt;az900/azure-architecture-and-services/compute-and-networking-services/application-hosting-options&lt;/p&gt;&lt;p&gt;az900/azure-architecture-and-services/compute-and-networking-services/virtual-networking/virtual-networks&lt;/p&gt;&lt;p&gt;az900/azure-architecture-and-services/compute-and-networking-services/virtual-networking/subnets&lt;/p&gt;&lt;p&gt;az900/azure-architecture-and-services/compute-and-networking-services/virtual-networking/peering&lt;/p&gt;&lt;p&gt;az900/azure-architecture-and-services/compute-and-networking-services/virtual-networking/DNS&lt;/p&gt;&lt;p&gt;az900/azure-architecture-and-services/compute-and-networking-services/virtual-networking/VPN-Gateway&lt;/p&gt;&lt;p&gt;az900/azure-architecture-and-services/compute-and-networking-services/virtual-networking/ExpressRoute&lt;/p&gt;&lt;p&gt;az900/azure-architecture-and-services/compute-and-networking-services/public-and-private-endpoints&lt;/p&gt;&lt;p&gt;az900/azure-architecture-and-services/compute-and-networking-services/storage-services/compare-storage-services&lt;/p&gt;&lt;p&gt;az900/azure-architecture-and-services/compute-and-networking-services/storage-services/storage-tiers&lt;/p&gt;&lt;p&gt;az900/azure-architecture-and-services/compute-and-networking-services/storage-services/redundancy-options&lt;/p&gt;&lt;p&gt;az900/azure-architecture-and-services/compute-and-networking-services/storage-services/storage-account-options&lt;/p&gt;&lt;p&gt;az900/azure-architecture-and-services/compute-and-networking-services/storage-services/moving-files-options&lt;/p&gt;&lt;p&gt;az900/azure-architecture-and-services/compute-and-networking-services/storage-services/migration-options&lt;/p&gt;&lt;p&gt;az900/azure-architecture-and-services/identity-access-and-security/directory-services/Microsoft-Entra-ID&lt;/p&gt;&lt;p&gt;az900/azure-architecture-and-services/identity-access-and-security/directory-services/Microsoft-Entra-Domain-Services&lt;/p&gt;&lt;p&gt;az900/azure-architecture-and-services/identity-access-and-security/authentication-methods/SSO&lt;/p&gt;&lt;p&gt;az900/azure-architecture-and-services/identity-access-and-security/authentication-methods/MFA&lt;/p&gt;&lt;p&gt;az900/azure-architecture-and-services/identity-access-and-security/authentication-methods/passwordless&lt;/p&gt;&lt;p&gt;az900/azure-architecture-and-services/identity-access-and-security/external-identities/B2B&lt;/p&gt;&lt;p&gt;az900/azure-architecture-and-services/identity-access-and-security/external-identities/B2C&lt;/p&gt;&lt;p&gt;az900/azure-architecture-and-services/identity-access-and-security/conditional-access&lt;/p&gt;&lt;p&gt;az900/azure-architecture-and-services/identity-access-and-security/role-based-access-control&lt;/p&gt;&lt;p&gt;az900/azure-architecture-and-services/identity-access-and-security/zero-trust&lt;/p&gt;&lt;p&gt;az900/azure-architecture-and-services/identity-access-and-security/defense-in-depth-model&lt;/p&gt;&lt;p&gt;az900/azure-architecture-and-services/identity-access-and-security/Microsoft-Defender-for-Cloud&lt;/p&gt;&lt;p&gt;az900/azure-management-and-governance/cost-management-in-azure/factors-affecting-costs&lt;/p&gt;&lt;p&gt;az900/azure-management-and-governance/cost-management-in-azure/pricing-calculator&lt;/p&gt;&lt;p&gt;az900/azure-management-and-governance/cost-management-in-azure/TCO-calculator&lt;/p&gt;&lt;p&gt;az900/azure-management-and-governance/cost-management-in-azure/cost-management-capabilities&lt;/p&gt;&lt;p&gt;az900/azure-management-and-governance/cost-management-in-azure/purpose-of-tags&lt;/p&gt;&lt;p&gt;az900/azure-management-and-governance/governance-and-compliance/Microsoft-Purview&lt;/p&gt;&lt;p&gt;az900/azure-management-and-governance/governance-and-compliance/Azure-Policy&lt;/p&gt;&lt;p&gt;az900/azure-management-and-governance/governance-and-compliance/resource-locks&lt;/p&gt;&lt;p&gt;az900/azure-management-and-governance/managing-and-deploying-resources/Azure-portal&lt;/p&gt;&lt;p&gt;az900/azure-management-and-governance/managing-and-deploying-resources/Azure-Cloud-Shell&lt;/p&gt;&lt;p&gt;az900/azure-management-and-governance/managing-and-deploying-resources/Azure-CLI&lt;/p&gt;&lt;p&gt;az900/azure-management-and-governance/managing-and-deploying-resources/Azure-PowerShell&lt;/p&gt;&lt;p&gt;az900/azure-management-and-governance/managing-and-deploying-resources/Azure-Arc&lt;/p&gt;&lt;p&gt;az900/azure-management-and-governance/managing-and-deploying-resources/infrastructure-as-code&lt;/p&gt;&lt;p&gt;az900/azure-management-and-governance/managing-and-deploying-resources/ARM-and-ARM-templates&lt;/p&gt;&lt;p&gt;az900/azure-management-and-governance/monitoring-tools-in-azure/Azure-Advisor&lt;/p&gt;&lt;p&gt;az900/azure-management-and-governance/monitoring-tools-in-azure/Azure-Service-Health&lt;/p&gt;&lt;p&gt;az900/azure-management-and-governance/monitoring-tools-in-azure/Azure-Monitor&lt;/p&gt;&lt;p&gt;az900/azure-management-and-governance/monitoring-tools-in-azure/Application-Insights&lt;/p&gt;&lt;div&gt;&lt;br&gt;&lt;/div&gt;" style="text;html=1;whiteSpace=wrap;overflow=hidden;rounded=0;fillColor=#ffe6cc;strokeColor=#d79b00;opacity=40;fontStyle=1" parent="1" vertex="1">
          <mxGeometry x="850" y="3420" width="760" height="2070" as="geometry" />
        </mxCell>
        <mxCell id="HQJu8xaNIS8UzSnk2N4J-17" value="Cloud computing" style="rounded=1;fillColor=#dae8fc;strokeColor=#6c8ebf;fontStyle=1;fontSize=14;" parent="1" vertex="1">
          <mxGeometry x="200" y="220" width="212.5" height="170" as="geometry" />
        </mxCell>
        <mxCell id="HQJu8xaNIS8UzSnk2N4J-18" value="Shared&#xa;responsibility&#xa; model" style="rounded=1;fillColor=#dae8fc;strokeColor=#6c8ebf;fontStyle=1" parent="1" vertex="1">
          <mxGeometry x="40" y="290" width="120" height="90" as="geometry" />
        </mxCell>
        <mxCell id="HQJu8xaNIS8UzSnk2N4J-19" value="Definition of" style="rounded=1;fillColor=#dae8fc;strokeColor=#6c8ebf;fontStyle=1" parent="1" vertex="1">
          <mxGeometry x="40" y="230" width="120" height="50" as="geometry" />
        </mxCell>
        <mxCell id="HQJu8xaNIS8UzSnk2N4J-20" style="edgeStyle=orthogonalEdgeStyle;rounded=0;orthogonalLoop=1;jettySize=auto;html=1;entryX=0.013;entryY=0.208;entryDx=0;entryDy=0;entryPerimeter=0;fontStyle=1" parent="1" source="HQJu8xaNIS8UzSnk2N4J-19" target="HQJu8xaNIS8UzSnk2N4J-17" edge="1">
          <mxGeometry relative="1" as="geometry" />
        </mxCell>
        <mxCell id="HQJu8xaNIS8UzSnk2N4J-22" style="edgeStyle=orthogonalEdgeStyle;rounded=0;orthogonalLoop=1;jettySize=auto;html=1;entryX=-0.005;entryY=0.676;entryDx=0;entryDy=0;entryPerimeter=0;fontStyle=1" parent="1" source="HQJu8xaNIS8UzSnk2N4J-18" target="HQJu8xaNIS8UzSnk2N4J-17" edge="1">
          <mxGeometry relative="1" as="geometry" />
        </mxCell>
        <mxCell id="HQJu8xaNIS8UzSnk2N4J-25" value="Consumption based model" style="rounded=1;fillColor=#dae8fc;strokeColor=#6c8ebf;fontStyle=1;fontSize=14;" parent="1" vertex="1">
          <mxGeometry x="520" y="230" width="210" height="170" as="geometry" />
        </mxCell>
        <mxCell id="HQJu8xaNIS8UzSnk2N4J-27" value="&lt;span&gt;&lt;font style=&quot;font-size: 45px;&quot;&gt;AZ900&lt;/font&gt;&lt;/span&gt;" style="ellipse;whiteSpace=wrap;html=1;aspect=fixed;fillColor=#d5e8d4;strokeColor=#82b366;fontStyle=1;strokeWidth=12;" parent="1" vertex="1">
          <mxGeometry x="765" y="1015" width="170" height="170" as="geometry" />
        </mxCell>
        <mxCell id="HQJu8xaNIS8UzSnk2N4J-28" value="Cloud pricing models" style="rounded=1;fillColor=#dae8fc;strokeColor=#6c8ebf;fontStyle=1;fontSize=14;" parent="1" vertex="1">
          <mxGeometry x="540" y="590" width="212.5" height="170" as="geometry" />
        </mxCell>
        <mxCell id="HQJu8xaNIS8UzSnk2N4J-29" value="Compare pricing" style="rounded=1;fillColor=#dae8fc;strokeColor=#6c8ebf;fontStyle=1" parent="1" vertex="1">
          <mxGeometry x="540" y="500" width="120" height="50" as="geometry" />
        </mxCell>
        <mxCell id="HQJu8xaNIS8UzSnk2N4J-30" value="Serverless" style="rounded=1;fillColor=#dae8fc;strokeColor=#6c8ebf;fontStyle=1" parent="1" vertex="1">
          <mxGeometry x="667.5" y="500" width="92.5" height="50" as="geometry" />
        </mxCell>
        <mxCell id="HQJu8xaNIS8UzSnk2N4J-36" value="Benefits of using&#xa; cloud services" style="rounded=1;fillColor=#dae8fc;strokeColor=#6c8ebf;fontStyle=1;fontSize=14;" parent="1" vertex="1">
          <mxGeometry x="290" y="660" width="202.5" height="220" as="geometry" />
        </mxCell>
        <mxCell id="HQJu8xaNIS8UzSnk2N4J-37" value="High avaiilability and scalability" style="rounded=1;fillColor=#dae8fc;strokeColor=#6c8ebf;fontStyle=1" parent="1" vertex="1">
          <mxGeometry x="50" y="660" width="200" height="40" as="geometry" />
        </mxCell>
        <mxCell id="HQJu8xaNIS8UzSnk2N4J-38" value="Reliability and predictability" style="rounded=1;fillColor=#dae8fc;strokeColor=#6c8ebf;fontStyle=1" parent="1" vertex="1">
          <mxGeometry x="50" y="720" width="200" height="40" as="geometry" />
        </mxCell>
        <mxCell id="HQJu8xaNIS8UzSnk2N4J-39" value="Security and governance" style="rounded=1;fillColor=#dae8fc;strokeColor=#6c8ebf;fontStyle=1" parent="1" vertex="1">
          <mxGeometry x="50" y="780" width="200" height="40" as="geometry" />
        </mxCell>
        <mxCell id="HQJu8xaNIS8UzSnk2N4J-40" value="Manageability" style="rounded=1;fillColor=#dae8fc;strokeColor=#6c8ebf;fontStyle=1" parent="1" vertex="1">
          <mxGeometry x="50" y="840" width="200" height="40" as="geometry" />
        </mxCell>
        <mxCell id="HQJu8xaNIS8UzSnk2N4J-41" value="Cloud service types" style="rounded=1;fillColor=#dae8fc;strokeColor=#6c8ebf;fontStyle=1;fontSize=14;" parent="1" vertex="1">
          <mxGeometry x="290" y="940" width="280" height="160" as="geometry" />
        </mxCell>
        <mxCell id="HQJu8xaNIS8UzSnk2N4J-43" value="IaaS" style="rounded=1;fillColor=#dae8fc;strokeColor=#6c8ebf;fontStyle=1" parent="1" vertex="1">
          <mxGeometry x="50" y="940" width="200" height="40" as="geometry" />
        </mxCell>
        <mxCell id="myZ27B8WGgTpXeWoUAyN-14" value="&lt;font style=&quot;font-size: 35px;&quot;&gt;Cloud concepts&lt;/font&gt;" style="ellipse;whiteSpace=wrap;html=1;aspect=fixed;fillColor=#dae8fc;strokeColor=#6c8ebf;fontStyle=1;strokeWidth=6;" parent="1" vertex="1">
          <mxGeometry x="480" y="830" width="320" height="320" as="geometry" />
        </mxCell>
        <mxCell id="HQJu8xaNIS8UzSnk2N4J-44" value="PaaS" style="rounded=1;fillColor=#dae8fc;strokeColor=#6c8ebf;fontStyle=1" parent="1" vertex="1">
          <mxGeometry x="50" y="1000" width="200" height="40" as="geometry" />
        </mxCell>
        <mxCell id="HQJu8xaNIS8UzSnk2N4J-45" value="SaaS" style="rounded=1;fillColor=#dae8fc;strokeColor=#6c8ebf;fontStyle=1" parent="1" vertex="1">
          <mxGeometry x="50" y="1060" width="200" height="40" as="geometry" />
        </mxCell>
        <mxCell id="HQJu8xaNIS8UzSnk2N4J-48" value="Managing &amp;&#xa;Deploying &#xa;Resources" style="rounded=1;fillColor=#f8cecc;strokeColor=#b85450;fontStyle=1;fontSize=20;opacity=70;" parent="1" vertex="1">
          <mxGeometry x="1450" y="470" width="160" height="230" as="geometry" />
        </mxCell>
        <mxCell id="HQJu8xaNIS8UzSnk2N4J-49" value="Governance &amp;&#xa; compliance" style="rounded=1;fillColor=#f8cecc;strokeColor=#b85450;fontStyle=1;fontSize=20;opacity=70;" parent="1" vertex="1">
          <mxGeometry x="1200" y="470" width="240" height="230" as="geometry" />
        </mxCell>
        <mxCell id="HQJu8xaNIS8UzSnk2N4J-50" value="Cost management" style="rounded=1;fillColor=#f8cecc;strokeColor=#b85450;fontStyle=1;fontSize=20;opacity=70;" parent="1" vertex="1">
          <mxGeometry x="955" y="470" width="195" height="230" as="geometry" />
        </mxCell>
        <mxCell id="HQJu8xaNIS8UzSnk2N4J-51" value="Core &#xa;architectural&#xa; components" style="rounded=1;fillColor=#fff2cc;strokeColor=#d6b656;fontStyle=1;fontSize=20;opacity=70;strokeWidth=4;" parent="1" vertex="1">
          <mxGeometry x="350" y="1210" width="310" height="140" as="geometry" />
        </mxCell>
        <mxCell id="HQJu8xaNIS8UzSnk2N4J-52" value="Compute &amp;&#xa; networking services" style="rounded=1;fillColor=#fff2cc;strokeColor=#d6b656;fontStyle=1;fontSize=20;opacity=70;strokeWidth=4;" parent="1" vertex="1">
          <mxGeometry x="690" y="1570" width="680" height="329.03" as="geometry" />
        </mxCell>
        <mxCell id="HQJu8xaNIS8UzSnk2N4J-53" value="Public &amp; &#xa;privates endpoints" style="rounded=1;fillColor=#fff2cc;strokeColor=#d6b656;fontStyle=1;fontSize=20;opacity=70;" parent="1" vertex="1">
          <mxGeometry x="1060" y="1420" width="320" height="116.36" as="geometry" />
        </mxCell>
        <mxCell id="HQJu8xaNIS8UzSnk2N4J-54" value="Storage services" style="rounded=1;fillColor=#fff2cc;strokeColor=#d6b656;fontStyle=1;fontSize=20;opacity=70;" parent="1" vertex="1">
          <mxGeometry x="860" y="1940" width="476.25" height="160" as="geometry" />
        </mxCell>
        <mxCell id="HQJu8xaNIS8UzSnk2N4J-55" value="application-hosting-options" style="rounded=1;fillColor=#fff2cc;strokeColor=#d6b656;fontStyle=1;fontSize=20;opacity=70;strokeWidth=3;" parent="1" vertex="1">
          <mxGeometry x="450" y="1990" width="260" height="100" as="geometry" />
        </mxCell>
        <mxCell id="HQJu8xaNIS8UzSnk2N4J-56" value="Identity access&#xa;&amp; security" style="rounded=1;fillColor=#fff2cc;strokeColor=#d6b656;fontStyle=1;fontSize=20;opacity=70;strokeWidth=4;" parent="1" vertex="1">
          <mxGeometry x="1400" y="1570" width="400" height="830" as="geometry" />
        </mxCell>
        <mxCell id="HQJu8xaNIS8UzSnk2N4J-57" value="Microsoft Defender for Cloud" style="rounded=1;fillColor=#fff2cc;strokeColor=#d6b656;fontStyle=1;fontSize=20;opacity=70;strokeWidth=4;" parent="1" vertex="1">
          <mxGeometry x="1040" y="1240" width="360" height="160" as="geometry" />
        </mxCell>
        <mxCell id="HQJu8xaNIS8UzSnk2N4J-64" style="edgeStyle=orthogonalEdgeStyle;rounded=0;orthogonalLoop=1;jettySize=auto;html=1;exitX=0.5;exitY=1;exitDx=0;exitDy=0;strokeWidth=3;" parent="1" source="HQJu8xaNIS8UzSnk2N4J-55" target="HQJu8xaNIS8UzSnk2N4J-55" edge="1">
          <mxGeometry relative="1" as="geometry" />
        </mxCell>
        <mxCell id="HQJu8xaNIS8UzSnk2N4J-66" value="Azure-Advisor" style="rounded=1;fillColor=#f8cecc;strokeColor=#b85450;fontStyle=1;fontSize=14;opacity=70;" parent="1" vertex="1">
          <mxGeometry x="1270" y="1000" width="150" height="44" as="geometry" />
        </mxCell>
        <mxCell id="HQJu8xaNIS8UzSnk2N4J-67" value="regions-and-region-pairs" style="rounded=1;fillColor=#fff2cc;strokeColor=#d6b656;fontStyle=1;fontSize=20;opacity=70;" parent="1" vertex="1">
          <mxGeometry x="90" y="1210" width="220" height="80" as="geometry" />
        </mxCell>
        <mxCell id="HQJu8xaNIS8UzSnk2N4J-68" value="availability-zones" style="rounded=1;fillColor=#fff2cc;strokeColor=#d6b656;fontStyle=1;fontSize=20;opacity=70;" parent="1" vertex="1">
          <mxGeometry x="80" y="1320" width="220" height="80" as="geometry" />
        </mxCell>
        <mxCell id="HQJu8xaNIS8UzSnk2N4J-69" value="datacenters" style="rounded=1;fillColor=#fff2cc;strokeColor=#d6b656;fontStyle=1;fontSize=20;opacity=70;" parent="1" vertex="1">
          <mxGeometry x="80" y="1420" width="220" height="80" as="geometry" />
        </mxCell>
        <mxCell id="HQJu8xaNIS8UzSnk2N4J-70" value="resource-groups-and-subscriptions" style="rounded=1;fillColor=#fff2cc;strokeColor=#d6b656;fontStyle=1;fontSize=20;opacity=70;" parent="1" vertex="1">
          <mxGeometry x="90" y="1540" width="220" height="80" as="geometry" />
        </mxCell>
        <mxCell id="HQJu8xaNIS8UzSnk2N4J-71" value="management-groups" style="rounded=1;fillColor=#fff2cc;strokeColor=#d6b656;fontStyle=1;fontSize=20;opacity=70;" parent="1" vertex="1">
          <mxGeometry x="340" y="1380" width="220" height="80" as="geometry" />
        </mxCell>
        <mxCell id="HQJu8xaNIS8UzSnk2N4J-72" value="hierarchy-of-resources" style="rounded=1;fillColor=#fff2cc;strokeColor=#d6b656;fontStyle=1;fontSize=20;opacity=70;" parent="1" vertex="1">
          <mxGeometry x="340" y="1490" width="220" height="80" as="geometry" />
        </mxCell>
        <mxCell id="HQJu8xaNIS8UzSnk2N4J-73" value="compute types" style="rounded=1;fillColor=#fff2cc;strokeColor=#d6b656;fontStyle=1;fontSize=20;opacity=70;strokeWidth=3;" parent="1" vertex="1">
          <mxGeometry x="450" y="1710" width="220" height="80" as="geometry" />
        </mxCell>
        <mxCell id="HQJu8xaNIS8UzSnk2N4J-74" value="containers" style="rounded=1;fillColor=#fff2cc;strokeColor=#d6b656;fontStyle=1;fontSize=20;opacity=70;" parent="1" vertex="1">
          <mxGeometry x="210" y="1640" width="220" height="80" as="geometry" />
        </mxCell>
        <mxCell id="HQJu8xaNIS8UzSnk2N4J-75" value="virtual-machines" style="rounded=1;fillColor=#fff2cc;strokeColor=#d6b656;fontStyle=1;fontSize=20;opacity=70;" parent="1" vertex="1">
          <mxGeometry x="210" y="1720" width="220" height="80" as="geometry" />
        </mxCell>
        <mxCell id="HQJu8xaNIS8UzSnk2N4J-76" value="functions" style="rounded=1;fillColor=#fff2cc;strokeColor=#d6b656;fontStyle=1;fontSize=20;opacity=70;" parent="1" vertex="1">
          <mxGeometry x="210" y="1790" width="220" height="80" as="geometry" />
        </mxCell>
        <mxCell id="HQJu8xaNIS8UzSnk2N4J-77" value="virtual-machines-options" style="rounded=1;fillColor=#fff2cc;strokeColor=#d6b656;fontStyle=1;fontSize=20;opacity=70;strokeWidth=3;" parent="1" vertex="1">
          <mxGeometry x="450" y="1850" width="260" height="120" as="geometry" />
        </mxCell>
        <mxCell id="HQJu8xaNIS8UzSnk2N4J-78" value="virtual-networking" style="rounded=1;fillColor=#fff2cc;strokeColor=#d6b656;fontStyle=1;fontSize=20;opacity=70;strokeWidth=3;" parent="1" vertex="1">
          <mxGeometry x="450" y="2125" width="260" height="350" as="geometry" />
        </mxCell>
        <mxCell id="HQJu8xaNIS8UzSnk2N4J-83" value="subnets" style="rounded=1;fillColor=#fff2cc;strokeColor=#d6b656;fontStyle=1;fontSize=20;opacity=70;" parent="1" vertex="1">
          <mxGeometry x="170" y="2250" width="230" height="80" as="geometry" />
        </mxCell>
        <mxCell id="HQJu8xaNIS8UzSnk2N4J-84" value="DNS" style="rounded=1;fillColor=#fff2cc;strokeColor=#d6b656;fontStyle=1;fontSize=20;opacity=70;" parent="1" vertex="1">
          <mxGeometry x="-60" y="2160" width="220" height="80" as="geometry" />
        </mxCell>
        <mxCell id="HQJu8xaNIS8UzSnk2N4J-85" value="peering" style="rounded=1;fillColor=#fff2cc;strokeColor=#d6b656;fontStyle=1;fontSize=20;opacity=70;" parent="1" vertex="1">
          <mxGeometry x="-60" y="2260" width="220" height="80" as="geometry" />
        </mxCell>
        <mxCell id="HQJu8xaNIS8UzSnk2N4J-86" value="VPN-Gateway" style="rounded=1;fillColor=#fff2cc;strokeColor=#d6b656;fontStyle=1;fontSize=20;opacity=70;" parent="1" vertex="1">
          <mxGeometry x="-50" y="2370" width="220" height="80" as="geometry" />
        </mxCell>
        <mxCell id="HQJu8xaNIS8UzSnk2N4J-87" value="ExpressRoute" style="rounded=1;fillColor=#fff2cc;strokeColor=#d6b656;fontStyle=1;fontSize=20;opacity=70;" parent="1" vertex="1">
          <mxGeometry x="190" y="2380" width="220" height="80" as="geometry" />
        </mxCell>
        <mxCell id="HQJu8xaNIS8UzSnk2N4J-88" value="virtual-networks" style="rounded=1;fillColor=#fff2cc;strokeColor=#d6b656;fontStyle=1;fontSize=20;opacity=70;" parent="1" vertex="1">
          <mxGeometry x="170" y="2160" width="220" height="80" as="geometry" />
        </mxCell>
        <mxCell id="HQJu8xaNIS8UzSnk2N4J-89" value="compare-storage-services" style="rounded=1;fillColor=#fff2cc;strokeColor=#d6b656;fontStyle=1;fontSize=20;opacity=70;" parent="1" vertex="1">
          <mxGeometry x="860" y="2140" width="220" height="80" as="geometry" />
        </mxCell>
        <mxCell id="HQJu8xaNIS8UzSnk2N4J-90" value="storage-tiers" style="rounded=1;fillColor=#fff2cc;strokeColor=#d6b656;fontStyle=1;fontSize=20;opacity=70;" parent="1" vertex="1">
          <mxGeometry x="1106.25" y="2120" width="220" height="80" as="geometry" />
        </mxCell>
        <mxCell id="HQJu8xaNIS8UzSnk2N4J-91" value="storage-account-options" style="rounded=1;fillColor=#fff2cc;strokeColor=#d6b656;fontStyle=1;fontSize=20;opacity=70;" parent="1" vertex="1">
          <mxGeometry x="1106.25" y="2230" width="220" height="80" as="geometry" />
        </mxCell>
        <mxCell id="HQJu8xaNIS8UzSnk2N4J-92" value="migration-options" style="rounded=1;fillColor=#fff2cc;strokeColor=#d6b656;fontStyle=1;fontSize=20;opacity=70;" parent="1" vertex="1">
          <mxGeometry x="1106.25" y="2320" width="220" height="80" as="geometry" />
        </mxCell>
        <mxCell id="HQJu8xaNIS8UzSnk2N4J-93" value="moving-files-options" style="rounded=1;fillColor=#fff2cc;strokeColor=#d6b656;fontStyle=1;fontSize=20;opacity=70;" parent="1" vertex="1">
          <mxGeometry x="876.25" y="2330" width="220" height="80" as="geometry" />
        </mxCell>
        <mxCell id="HQJu8xaNIS8UzSnk2N4J-94" value="redundancy-options" style="rounded=1;fillColor=#fff2cc;strokeColor=#d6b656;fontStyle=1;fontSize=20;opacity=70;" parent="1" vertex="1">
          <mxGeometry x="866.25" y="2230" width="220" height="80" as="geometry" />
        </mxCell>
        <mxCell id="HQJu8xaNIS8UzSnk2N4J-96" value="Microsoft-Entra-ID" style="rounded=1;fillColor=#fff2cc;strokeColor=#d6b656;fontStyle=1;fontSize=20;opacity=70;" parent="1" vertex="1">
          <mxGeometry x="1820" y="1420" width="260" height="120" as="geometry" />
        </mxCell>
        <mxCell id="HQJu8xaNIS8UzSnk2N4J-97" value="Microsoft-Entra-Domain-Services" style="rounded=1;fillColor=#fff2cc;strokeColor=#d6b656;fontStyle=1;fontSize=20;opacity=70;" parent="1" vertex="1">
          <mxGeometry x="2100" y="1416.3600000000001" width="260" height="120" as="geometry" />
        </mxCell>
        <mxCell id="HQJu8xaNIS8UzSnk2N4J-98" value="authentication-methods" style="rounded=1;fillColor=#fff2cc;strokeColor=#d6b656;fontStyle=1;fontSize=20;opacity=70;" parent="1" vertex="1">
          <mxGeometry x="1840" y="1760" width="260" height="120" as="geometry" />
        </mxCell>
        <mxCell id="HQJu8xaNIS8UzSnk2N4J-99" value="external-identities" style="rounded=1;fillColor=#fff2cc;strokeColor=#d6b656;fontStyle=1;fontSize=20;opacity=70;" parent="1" vertex="1">
          <mxGeometry x="1820" y="1910" width="260" height="120" as="geometry" />
        </mxCell>
        <mxCell id="HQJu8xaNIS8UzSnk2N4J-100" value="conditional-access" style="rounded=1;fillColor=#fff2cc;strokeColor=#d6b656;fontStyle=1;fontSize=20;opacity=70;" parent="1" vertex="1">
          <mxGeometry x="1820" y="2050" width="260" height="120" as="geometry" />
        </mxCell>
        <mxCell id="HQJu8xaNIS8UzSnk2N4J-101" value="role-based-access-control" style="rounded=1;fillColor=#fff2cc;strokeColor=#d6b656;fontStyle=1;fontSize=20;opacity=70;" parent="1" vertex="1">
          <mxGeometry x="1820" y="2190" width="260" height="120" as="geometry" />
        </mxCell>
        <mxCell id="HQJu8xaNIS8UzSnk2N4J-102" value="zero-trust" style="rounded=1;fillColor=#fff2cc;strokeColor=#d6b656;fontStyle=1;fontSize=20;opacity=70;" parent="1" vertex="1">
          <mxGeometry x="1810" y="2350" width="260" height="120" as="geometry" />
        </mxCell>
        <mxCell id="HQJu8xaNIS8UzSnk2N4J-103" value="directory-services" style="rounded=1;fillColor=#fff2cc;strokeColor=#d6b656;fontStyle=1;fontSize=20;opacity=70;" parent="1" vertex="1">
          <mxGeometry x="1830" y="1550" width="530" height="120" as="geometry" />
        </mxCell>
        <mxCell id="HQJu8xaNIS8UzSnk2N4J-104" value="SSO/MFA/passwordless" style="rounded=1;fillColor=#fff2cc;strokeColor=#d6b656;fontStyle=1;fontSize=20;opacity=70;" parent="1" vertex="1">
          <mxGeometry x="2130" y="1760" width="260" height="120" as="geometry" />
        </mxCell>
        <mxCell id="HQJu8xaNIS8UzSnk2N4J-105" value="B2B" style="rounded=1;fillColor=#fff2cc;strokeColor=#d6b656;fontStyle=1;fontSize=20;opacity=70;" parent="1" vertex="1">
          <mxGeometry x="2110" y="1910" width="112.5" height="120" as="geometry" />
        </mxCell>
        <mxCell id="HQJu8xaNIS8UzSnk2N4J-106" value="B2C" style="rounded=1;fillColor=#fff2cc;strokeColor=#d6b656;fontStyle=1;fontSize=20;opacity=70;" parent="1" vertex="1">
          <mxGeometry x="2240" y="1910" width="112.5" height="120" as="geometry" />
        </mxCell>
        <mxCell id="HQJu8xaNIS8UzSnk2N4J-107" value="defense-in-depth-model" style="rounded=1;fillColor=#fff2cc;strokeColor=#d6b656;fontStyle=1;fontSize=20;opacity=70;" parent="1" vertex="1">
          <mxGeometry x="1490" y="2420" width="260" height="120" as="geometry" />
        </mxCell>
        <mxCell id="HQJu8xaNIS8UzSnk2N4J-108" value="Azure-Monitor" style="rounded=1;fillColor=#f8cecc;strokeColor=#b85450;fontStyle=1;fontSize=14;opacity=70;" parent="1" vertex="1">
          <mxGeometry x="1270" y="1060" width="150" height="44" as="geometry" />
        </mxCell>
        <mxCell id="HQJu8xaNIS8UzSnk2N4J-109" value="Azure-Service-Health" style="rounded=1;fillColor=#f8cecc;strokeColor=#b85450;fontStyle=1;fontSize=14;opacity=70;" parent="1" vertex="1">
          <mxGeometry x="1440" y="996" width="150" height="44" as="geometry" />
        </mxCell>
        <mxCell id="HQJu8xaNIS8UzSnk2N4J-110" value="Application-Insights" style="rounded=1;fillColor=#f8cecc;strokeColor=#b85450;fontStyle=1;fontSize=14;opacity=70;" parent="1" vertex="1">
          <mxGeometry x="1440" y="1060" width="150" height="44" as="geometry" />
        </mxCell>
        <mxCell id="HQJu8xaNIS8UzSnk2N4J-111" value="Azure-Arc" style="rounded=1;fillColor=#f8cecc;strokeColor=#b85450;fontStyle=1;fontSize=14;opacity=70;" parent="1" vertex="1">
          <mxGeometry x="1650" y="592.5" width="150" height="44" as="geometry" />
        </mxCell>
        <mxCell id="HQJu8xaNIS8UzSnk2N4J-112" value="ARM-and-ARM-templates" style="rounded=1;fillColor=#f8cecc;strokeColor=#b85450;fontStyle=1;fontSize=14;opacity=70;" parent="1" vertex="1">
          <mxGeometry x="1990" y="532.5" width="150" height="44" as="geometry" />
        </mxCell>
        <mxCell id="HQJu8xaNIS8UzSnk2N4J-113" value="infrastructure-as-code" style="rounded=1;fillColor=#f8cecc;strokeColor=#b85450;fontStyle=1;fontSize=14;opacity=70;" parent="1" vertex="1">
          <mxGeometry x="1820" y="588.5" width="150" height="44" as="geometry" />
        </mxCell>
        <mxCell id="HQJu8xaNIS8UzSnk2N4J-119" value="Azure-portal" style="rounded=1;fillColor=#f8cecc;strokeColor=#b85450;fontStyle=1;fontSize=14;opacity=70;" parent="1" vertex="1">
          <mxGeometry x="1650" y="472.5" width="150" height="44" as="geometry" />
        </mxCell>
        <mxCell id="HQJu8xaNIS8UzSnk2N4J-120" value="Azure-CLI" style="rounded=1;fillColor=#f8cecc;strokeColor=#b85450;fontStyle=1;fontSize=14;opacity=70;" parent="1" vertex="1">
          <mxGeometry x="1650" y="532.5" width="150" height="44" as="geometry" />
        </mxCell>
        <mxCell id="HQJu8xaNIS8UzSnk2N4J-121" value="Azure-Cloud-Shell" style="rounded=1;fillColor=#f8cecc;strokeColor=#b85450;fontStyle=1;fontSize=14;opacity=70;" parent="1" vertex="1">
          <mxGeometry x="1820" y="468.5" width="150" height="44" as="geometry" />
        </mxCell>
        <mxCell id="HQJu8xaNIS8UzSnk2N4J-122" value="Azure-PowerShell" style="rounded=1;fillColor=#f8cecc;strokeColor=#b85450;fontStyle=1;fontSize=14;opacity=70;" parent="1" vertex="1">
          <mxGeometry x="1820" y="532.5" width="150" height="44" as="geometry" />
        </mxCell>
        <mxCell id="HQJu8xaNIS8UzSnk2N4J-123" value="Azure-Policy" style="rounded=1;fillColor=#f8cecc;strokeColor=#b85450;fontStyle=1;fontSize=14;opacity=70;" parent="1" vertex="1">
          <mxGeometry x="1230" y="320" width="150" height="44" as="geometry" />
        </mxCell>
        <mxCell id="HQJu8xaNIS8UzSnk2N4J-124" value="resource-locks" style="rounded=1;fillColor=#f8cecc;strokeColor=#b85450;fontStyle=1;fontSize=14;opacity=70;" parent="1" vertex="1">
          <mxGeometry x="1230" y="380" width="150" height="44" as="geometry" />
        </mxCell>
        <mxCell id="HQJu8xaNIS8UzSnk2N4J-125" value="Microsoft-Purview" style="rounded=1;fillColor=#f8cecc;strokeColor=#b85450;fontStyle=1;fontSize=14;opacity=70;" parent="1" vertex="1">
          <mxGeometry x="1230" y="260" width="150" height="44" as="geometry" />
        </mxCell>
        <mxCell id="HQJu8xaNIS8UzSnk2N4J-126" value="purpose-of-tags" style="rounded=1;fillColor=#f8cecc;strokeColor=#b85450;fontStyle=1;fontSize=14;opacity=70;" parent="1" vertex="1">
          <mxGeometry x="965" y="400" width="150" height="44" as="geometry" />
        </mxCell>
        <mxCell id="HQJu8xaNIS8UzSnk2N4J-128" value="cost-management-capabilities" style="rounded=1;fillColor=#f8cecc;strokeColor=#b85450;fontStyle=1;fontSize=14;opacity=70;" parent="1" vertex="1">
          <mxGeometry x="965" y="340" width="150" height="44" as="geometry" />
        </mxCell>
        <mxCell id="HQJu8xaNIS8UzSnk2N4J-134" value="pricing-calculator" style="rounded=1;fillColor=#f8cecc;strokeColor=#b85450;fontStyle=1;fontSize=14;opacity=70;" parent="1" vertex="1">
          <mxGeometry x="955" y="220" width="150" height="44" as="geometry" />
        </mxCell>
        <mxCell id="HQJu8xaNIS8UzSnk2N4J-135" value="TCO-calculator" style="rounded=1;fillColor=#f8cecc;strokeColor=#b85450;fontStyle=1;fontSize=14;opacity=70;" parent="1" vertex="1">
          <mxGeometry x="955" y="280" width="150" height="44" as="geometry" />
        </mxCell>
        <mxCell id="HQJu8xaNIS8UzSnk2N4J-136" value="factors-affecting-costs" style="rounded=1;fillColor=#f8cecc;strokeColor=#b85450;fontStyle=1;fontSize=14;opacity=70;" parent="1" vertex="1">
          <mxGeometry x="955" y="160" width="150" height="44" as="geometry" />
        </mxCell>
      </root>
    </mxGraphModel>
  </diagram>
</mxfile>
